<?xml version="1.0" encoding="utf-8"?>
<!-- Generator: Adobe Illustrator 16.0.0, SVG Export Plug-In . SVG Version: 6.00 Build 0)  -->
<!DOCTYPE svg PUBLIC "-//W3C//DTD SVG 1.1//EN" "http://www.w3.org/Graphics/SVG/1.1/DTD/svg11.dtd">
<svg version="1.1" id="Layer_1" xmlns="http://www.w3.org/2000/svg" xmlns:xlink="http://www.w3.org/1999/xlink" x="0px" y="0px"
	 width="221.5px" height="108px" viewBox="0 0 221.5 108" enable-background="new 0 0 221.5 108" xml:space="preserve">
<g>
	<path fill="#007CED" d="M1.484,66.584l27.679-45.905c2.604-4.436,8.969-4.436,11.669,0l35.297,58.444
		c4.629-6.945,7.426-15.334,7.426-24.399c0-24.11-19.384-43.687-43.397-43.687H1.581v55.547H1.484z M64.17,91.08L34.949,42.763
		l-32.692,54.2h49.28c4.532-1.254,8.775-3.277,12.634-5.785L64.17,91.08L64.17,91.08z"/>
	<path fill="#171718" d="M208.539,40.354h11.477v6.75h-20.252V11.132h8.775V40.354z"/>
	<path fill="#171718" d="M172.181,11.133v21.505c0,2.121,0.483,3.857,1.546,5.015c1.061,1.158,2.604,1.736,4.629,1.736
		c2.023,0,3.664-0.579,4.725-1.736c1.063-1.157,1.639-2.796,1.639-5.015V11.133h8.777v21.505c0,3.183-0.676,5.979-2.025,8.197
		c-1.351,2.218-3.182,3.858-5.496,5.016c-2.316,1.157-4.822,1.735-7.716,1.735s-5.399-0.578-7.62-1.639
		c-2.217-1.158-3.953-2.797-5.303-5.015c-1.253-2.218-1.93-5.015-1.93-8.198V11.229h8.775L172.181,11.133L172.181,11.133z"/>
	<path fill="#171718" d="M159.162,11.133v7.04h-9.547v28.931h-8.776V18.173h-9.548v-7.04H159.162L159.162,11.133z"/>
	<path fill="#171718" d="M117.887,40.739h-13.405l-2.122,6.365h-9.162l13.02-35.971h10.125l13.02,35.971h-9.256l-2.123-6.365
		H117.887z M115.668,33.988l-4.436-13.213l-4.437,13.213H115.668L115.668,33.988z"/>
	<path fill="#171718" d="M210.468,58.002v5.305h8.487v4.918h-8.487v5.689h9.548v5.111h-15.912v-26.04h15.912v5.112h-9.548V58.002z"
		/>
	<path fill="#171718" d="M199.475,78.93h-6.365l-10.608-16.01v16.01h-6.365V52.891h6.365l10.608,16.105V52.891h6.365V78.93
		L199.475,78.93z"/>
	<path fill="#171718" d="M159.453,79.219c-2.412,0-4.727-0.578-6.752-1.735c-2.024-1.157-3.664-2.7-4.821-4.726
		c-1.157-2.026-1.735-4.34-1.735-6.848s0.578-4.822,1.735-6.849c1.255-2.024,2.797-3.567,4.821-4.725
		c2.025-1.158,4.34-1.736,6.752-1.736c2.41,0,4.726,0.579,6.751,1.736c2.024,1.158,3.663,2.701,4.821,4.725
		c1.156,2.024,1.735,4.341,1.735,6.849s-0.58,4.821-1.735,6.848c-1.158,2.025-2.797,3.568-4.821,4.726
		C164.178,78.641,161.959,79.219,159.453,79.219z M159.453,73.433c2.121,0,3.761-0.675,4.918-2.122
		c1.254-1.35,1.929-3.184,1.929-5.496c0-2.314-0.675-4.148-1.929-5.498s-2.893-2.121-4.918-2.121c-2.026,0-3.762,0.674-5.016,2.025
		c-1.254,1.351-1.832,3.183-1.832,5.496c0,2.314,0.578,4.146,1.832,5.496c1.254,1.352,2.894,2.025,5.016,2.025V73.433z"/>
	<path fill="#171718" d="M142.576,52.891V78.93h-6.365V68.225h-9.837V78.93h-6.365V52.891h6.365v10.223h9.837V52.891H142.576z"/>
	<path fill="#171718" d="M102.843,52.891c2.7,0,5.111,0.579,7.232,1.64c2.025,1.062,3.664,2.604,4.726,4.63
		c1.157,1.928,1.736,4.243,1.736,6.75c0,2.508-0.579,4.822-1.736,6.75c-1.156,1.93-2.699,3.473-4.821,4.631
		c-2.024,1.062-4.436,1.639-7.136,1.639h-9.741V52.891H102.843z M102.457,73.433c2.409,0,4.242-0.675,5.593-1.929
		c1.35-1.352,2.024-3.184,2.024-5.594s-0.675-4.244-2.024-5.595c-1.352-1.351-3.184-2.024-5.593-2.024h-2.99v15.142H102.457z"/>
	<g enable-background="new    ">
		<path fill="#007CED" d="M94.253,84.232h2.403v7.418c0,1.648,0.894,2.506,2.422,2.506c1.546,0,2.438-0.857,2.438-2.506v-7.418
			h2.422v7.4c0,3.16-2.267,4.705-4.895,4.705c-2.627,0-4.791-1.545-4.791-4.705L94.253,84.232L94.253,84.232z"/>
		<path fill="#007CED" d="M106.258,84.232h2.404v11.984h-2.404V84.232z"/>
		<path fill="#007CED" d="M110.998,84.232h2.402v7.418c0,1.648,0.895,2.506,2.423,2.506c1.547,0,2.438-0.857,2.438-2.506v-7.418
			h2.422v7.4c0,3.16-2.267,4.705-4.896,4.705c-2.628,0-4.791-1.545-4.791-4.705L110.998,84.232L110.998,84.232z"/>
		<path fill="#007CED" d="M127.589,92.182l-2.353,4.035h-2.715l3.778-6.043l-3.83-5.941h2.767l2.594,4.018l2.335-4.018h2.713
			l-3.761,6.027l3.83,5.957h-2.766L127.589,92.182z"/>
		<path fill="#007CED" d="M149.384,90.242c0,3.623-2.489,5.975-6.319,5.975h-4.189V84.232h4.189
			C146.895,84.232,149.384,86.6,149.384,90.242z M142.979,94.174c2.523,0,3.949-1.441,3.949-3.932c0-2.492-1.426-3.984-3.949-3.984
			h-1.701v7.916H142.979z"/>
		<path fill="#007CED" d="M158.145,86.172h-4.553v3.006h4.036v1.906h-4.036v3.176h4.553v1.957h-6.955V84.213h6.955V86.172z"/>
		<path fill="#007CED" d="M164.464,96.338c-2.489,0-4.414-1.305-4.446-3.57h2.574c0.068,0.961,0.704,1.596,1.821,1.596
			c1.133,0,1.804-0.602,1.804-1.459c0-2.592-6.184-1.029-6.167-5.375c0-2.164,1.753-3.471,4.226-3.471
			c2.457,0,4.14,1.256,4.293,3.418h-2.645c-0.052-0.789-0.688-1.408-1.717-1.426c-0.944-0.033-1.648,0.432-1.648,1.408
			c0,2.404,6.147,1.064,6.147,5.291C168.706,94.639,167.195,96.338,164.464,96.338z"/>
		<path fill="#007CED" d="M170.785,84.232h2.404v11.984h-2.404V84.232z"/>
		<path fill="#007CED" d="M186.672,87.838h-2.766c-0.551-1.014-1.547-1.547-2.815-1.547c-2.147,0-3.642,1.529-3.642,3.916
			c0,2.439,1.511,3.949,3.744,3.949c1.854,0,3.039-1.064,3.398-2.764h-4.121v-1.84h6.492v2.098c-0.48,2.438-2.662,4.67-5.857,4.67
			c-3.484,0-6.129-2.523-6.129-6.113s2.645-6.131,6.113-6.131C183.77,84.076,185.898,85.434,186.672,87.838z"/>
		<path fill="#007CED" d="M199.003,84.213v12.004H196.6l-5.443-8.225v8.225h-2.405V84.213h2.405l5.443,8.244v-8.244H199.003z"/>
		<path fill="#007CED" d="M208.329,86.172h-4.552v3.006h4.037v1.906h-4.037v3.176h4.552v1.957h-6.956V84.213h6.956V86.172z"/>
		<path fill="#007CED" d="M215.011,84.232c2.886,0,4.328,1.664,4.328,3.674c0,1.459-0.808,2.938-2.729,3.453l2.867,4.857h-2.781
			l-2.646-4.67h-1.134v4.67h-2.403V84.232H215.011z M214.926,86.223h-2.011v3.521h2.011c1.338,0,1.939-0.703,1.939-1.785
			C216.865,86.895,216.264,86.223,214.926,86.223z"/>
	</g>
</g>
</svg>
