<?xml version="1.0" encoding="utf-8"?>
<!-- Generator: Adobe Illustrator 16.0.0, SVG Export Plug-In . SVG Version: 6.00 Build 0)  -->
<!DOCTYPE svg PUBLIC "-//W3C//DTD SVG 1.1//EN" "http://www.w3.org/Graphics/SVG/1.1/DTD/svg11.dtd">
<svg version="1.1" id="Layer_1" xmlns="http://www.w3.org/2000/svg" xmlns:xlink="http://www.w3.org/1999/xlink" x="0px" y="0px"
	 width="221.76px" height="108px" viewBox="0 0 221.76 108" enable-background="new 0 0 221.76 108" xml:space="preserve">
<g>
	<path fill="#FFFFFF" d="M1.614,66.584L29.293,20.68c2.604-4.437,8.969-4.437,11.669,0l35.296,58.443
		c4.629-6.945,7.426-15.334,7.426-24.399c0-24.11-19.384-43.688-43.396-43.688H1.711v55.548H1.614z M64.299,91.081l-29.22-48.317
		l-32.692,54.2h49.28c4.532-1.254,8.774-3.276,12.634-5.785L64.299,91.081L64.299,91.081z"/>
	<path fill="#FFFFFF" d="M208.668,40.354h11.478v6.75h-20.252V11.133h8.774V40.354z"/>
	<path fill="#FFFFFF" d="M172.31,11.134v21.505c0,2.121,0.483,3.856,1.546,5.015c1.061,1.158,2.604,1.736,4.629,1.736
		c2.023,0,3.664-0.579,4.725-1.736c1.063-1.156,1.64-2.796,1.64-5.015V11.134h8.776v21.505c0,3.183-0.676,5.979-2.024,8.197
		c-1.351,2.218-3.183,3.857-5.496,5.016c-2.315,1.157-4.821,1.735-7.716,1.735s-5.398-0.578-7.62-1.64
		c-2.217-1.157-3.953-2.797-5.303-5.015c-1.253-2.218-1.931-5.015-1.931-8.198V11.229h8.775L172.31,11.134L172.31,11.134z"/>
	<path fill="#FFFFFF" d="M159.291,11.134v7.04h-9.547v28.931h-8.775V18.174h-9.549v-7.04H159.291L159.291,11.134z"/>
	<path fill="#FFFFFF" d="M118.016,40.739h-13.404l-2.123,6.365h-9.161l13.02-35.971h10.125l13.021,35.971h-9.256l-2.123-6.365
		H118.016z M115.797,33.988l-4.436-13.213l-4.438,13.213H115.797L115.797,33.988z"/>
	<path fill="#FFFFFF" d="M210.597,58.002v5.305h8.487v4.918h-8.487v5.689h9.548v5.11h-15.912v-26.04h15.912v5.112h-9.548V58.002z"/>
	<path fill="#FFFFFF" d="M199.604,78.93h-6.365l-10.607-16.01v16.01h-6.365V52.891h6.365l10.607,16.104V52.891h6.365V78.93
		L199.604,78.93z"/>
	<path fill="#FFFFFF" d="M159.582,79.219c-2.412,0-4.727-0.578-6.752-1.735c-2.023-1.157-3.664-2.7-4.82-4.726
		c-1.157-2.026-1.735-4.34-1.735-6.849c0-2.508,0.578-4.821,1.735-6.849c1.255-2.024,2.797-3.567,4.82-4.725
		c2.025-1.158,4.34-1.736,6.752-1.736c2.41,0,4.727,0.579,6.752,1.736c2.023,1.157,3.662,2.7,4.82,4.725
		c1.156,2.024,1.735,4.341,1.735,6.849c0,2.509-0.58,4.821-1.735,6.849c-1.158,2.024-2.797,3.567-4.82,4.726
		C164.307,78.641,162.089,79.219,159.582,79.219z M159.582,73.433c2.121,0,3.762-0.675,4.918-2.122
		c1.254-1.35,1.93-3.184,1.93-5.496c0-2.313-0.676-4.147-1.93-5.498c-1.254-1.35-2.893-2.121-4.918-2.121s-3.762,0.674-5.016,2.025
		c-1.254,1.351-1.832,3.183-1.832,5.496s0.578,4.146,1.832,5.496c1.254,1.352,2.895,2.024,5.016,2.024V73.433z"/>
	<path fill="#FFFFFF" d="M142.705,52.891V78.93h-6.364V68.225h-9.837V78.93h-6.365V52.891h6.365v10.223h9.837V52.891H142.705z"/>
	<path fill="#FFFFFF" d="M102.972,52.891c2.7,0,5.11,0.579,7.231,1.64c2.025,1.063,3.664,2.604,4.727,4.63
		c1.156,1.929,1.736,4.243,1.736,6.75c0,2.509-0.58,4.822-1.736,6.75c-1.156,1.931-2.699,3.474-4.82,4.632
		c-2.025,1.062-4.437,1.639-7.137,1.639h-9.741v-26.04H102.972z M102.586,73.433c2.41,0,4.242-0.675,5.594-1.929
		c1.35-1.353,2.023-3.185,2.023-5.595c0-2.409-0.674-4.243-2.023-5.595c-1.352-1.351-3.184-2.023-5.594-2.023h-2.989v15.142H102.586
		z"/>
	<g enable-background="new    ">
		<path fill="#FFFFFF" d="M94.382,84.232h2.403v7.418c0,1.648,0.894,2.506,2.422,2.506c1.545,0,2.438-0.856,2.438-2.506v-7.418
			h2.422v7.4c0,3.16-2.267,4.705-4.895,4.705c-2.627,0-4.791-1.545-4.791-4.705L94.382,84.232L94.382,84.232z"/>
		<path fill="#FFFFFF" d="M106.387,84.232h2.404v11.984h-2.404V84.232z"/>
		<path fill="#FFFFFF" d="M111.127,84.232h2.402v7.418c0,1.648,0.896,2.506,2.424,2.506c1.547,0,2.438-0.856,2.438-2.506v-7.418
			h2.422v7.4c0,3.16-2.268,4.705-4.896,4.705c-2.627,0-4.791-1.545-4.791-4.705L111.127,84.232L111.127,84.232z"/>
		<path fill="#FFFFFF" d="M127.718,92.182l-2.353,4.035h-2.716l3.778-6.043l-3.83-5.941h2.768l2.594,4.019l2.334-4.019h2.714
			l-3.761,6.027l3.83,5.957h-2.767L127.718,92.182z"/>
		<path fill="#FFFFFF" d="M149.513,90.242c0,3.623-2.489,5.976-6.319,5.976h-4.189V84.232h4.189
			C147.023,84.232,149.513,86.6,149.513,90.242z M143.107,94.174c2.523,0,3.949-1.441,3.949-3.932c0-2.492-1.426-3.984-3.949-3.984
			h-1.701v7.916H143.107z"/>
		<path fill="#FFFFFF" d="M158.273,86.172h-4.553v3.006h4.036v1.906h-4.036v3.176h4.553v1.957h-6.955V84.213h6.955V86.172z"/>
		<path fill="#FFFFFF" d="M164.593,96.338c-2.489,0-4.414-1.305-4.446-3.57h2.574c0.068,0.961,0.704,1.596,1.82,1.596
			c1.134,0,1.805-0.602,1.805-1.459c0-2.592-6.184-1.028-6.167-5.375c0-2.164,1.753-3.471,4.226-3.471
			c2.457,0,4.141,1.256,4.293,3.418h-2.645c-0.053-0.789-0.688-1.408-1.717-1.426c-0.944-0.033-1.648,0.432-1.648,1.408
			c0,2.404,6.146,1.064,6.146,5.291C168.836,94.639,167.324,96.338,164.593,96.338z"/>
		<path fill="#FFFFFF" d="M170.914,84.232h2.404v11.984h-2.404V84.232z"/>
		<path fill="#FFFFFF" d="M186.801,87.838h-2.766c-0.552-1.014-1.547-1.547-2.815-1.547c-2.147,0-3.642,1.529-3.642,3.916
			c0,2.439,1.51,3.949,3.744,3.949c1.854,0,3.039-1.064,3.397-2.765h-4.121v-1.84h6.492v2.099c-0.479,2.438-2.662,4.67-5.857,4.67
			c-3.483,0-6.129-2.523-6.129-6.113s2.646-6.131,6.113-6.131C183.898,84.076,186.027,85.434,186.801,87.838z"/>
		<path fill="#FFFFFF" d="M199.132,84.213v12.004h-2.403l-5.443-8.225v8.225h-2.404V84.213h2.404l5.443,8.244v-8.244H199.132z"/>
		<path fill="#FFFFFF" d="M208.459,86.172h-4.553v3.006h4.037v1.906h-4.037v3.176h4.553v1.957h-6.957V84.213h6.957V86.172z"/>
		<path fill="#FFFFFF" d="M215.14,84.232c2.886,0,4.328,1.664,4.328,3.674c0,1.459-0.808,2.938-2.729,3.453l2.867,4.857h-2.781
			l-2.646-4.67h-1.134v4.67h-2.403V84.232H215.14z M215.055,86.223h-2.012v3.521h2.012c1.338,0,1.939-0.703,1.939-1.785
			C216.994,86.895,216.393,86.223,215.055,86.223z"/>
	</g>
</g>
</svg>
